<svg version="1.1" xmlns="http://www.w3.org/2000/svg" viewBox="0 0 202.91802978515625 159.15579223632812" width="202.91802978515625" height="159.15579223632812" class="excalidraw-svg">
  <!-- svg-source:excalidraw -->
  
  <defs>
    <style class="style-fonts">
      
    </style>
    
  </defs>
  <rect x="0" y="0" width="202.91802978515625" height="159.15579223632812" fill="#ffffff"></rect><g stroke-linecap="round" transform="translate(10 10) rotate(0 91.45901489257812 69.57789611816406)"><path d="M32 0 C54.34 -0.14, 80.24 -0.66, 150.92 0 M32 0 C56.91 -1.11, 83.66 -0.83, 150.92 0 M150.92 0 C171.17 1.4, 180.93 9.78, 182.92 32 M150.92 0 C174.27 -0.34, 181.91 9.88, 182.92 32 M182.92 32 C184.42 50.1, 183.08 66.04, 182.92 107.16 M182.92 32 C184.29 49.32, 183.42 66.37, 182.92 107.16 M182.92 107.16 C182.9 126.98, 173.17 140.18, 150.92 139.16 M182.92 107.16 C182.35 126.4, 174.31 138.17, 150.92 139.16 M150.92 139.16 C121.74 140.23, 97.35 139.23, 32 139.16 M150.92 139.16 C123.3 140.79, 97.28 139.22, 32 139.16 M32 139.16 C10.64 137.68, 1.87 127.63, 0 107.16 M32 139.16 C11.26 136.92, -0.59 128.51, 0 107.16 M0 107.16 C-0.94 91.95, -2.66 72.73, 0 32 M0 107.16 C-0.36 83.74, -0.25 58.78, 0 32 M0 32 C1.43 12.49, 11.34 -0.16, 32 0 M0 32 C0.81 12.9, 11.87 1.15, 32 0" stroke="#1e1e1e" stroke-width="2" fill="none"></path></g></svg>